# xmcd CD database file
#
# Track frame offsets:
#	150
#	24865
#	37167
#	53417
#	65170
#	85380
#	103437
#	114590
#	128567
#	151447
#
# Disc length: 2171 seconds
#
# Revision: 6
# Processed by: cddbd v1.5.1PL0 Copyright (c) Steve Scherf et al.
# Submitted via: CDex 1.51
#
DISCID=8408790a
DTITLE=The Jesus ＆ Mary Chain - Darklands
DYEAR=1987
DGENRE=Rock
TTITLE0=Darklands
TTITLE1=Deep One Perfect Morning
TTITLE2=Happy When it Rains
TTITLE3=Down on Me
TTITLE4=Nine Million Rainy Days
TTITLE5=April Skies
TTITLE6=Fall
TTITLE7=Cherry Came Too
TTITLE8=On the Wall
TTITLE9=About You
EXTD=YEAR: 1987
EXTT0=
EXTT1=
EXTT2=
EXTT3=
EXTT4=
EXTT5=
EXTT6=
EXTT7=
EXTT8=
EXTT9=
PLAYORDER=
